<svg xmlns="http://www.w3.org/2000/svg" viewBox="0 0 512 512" width="512" height="512" role="img" aria-label="BitChicken" shape-rendering="crispEdges">
  <rect x="228" y="60" width="28" height="28" fill="#e8453c"/>
  <rect x="284" y="60" width="28" height="28" fill="#e8453c"/>
  <rect x="228" y="88" width="28" height="28" fill="#e8453c"/>
  <rect x="256" y="88" width="28" height="28" fill="#e8453c"/>
  <rect x="284" y="88" width="28" height="28" fill="#e8453c"/>
  <rect x="200" y="116" width="28" height="28" fill="#f5a623"/>
  <rect x="228" y="116" width="28" height="28" fill="#f5a623"/>
  <rect x="256" y="116" width="28" height="28" fill="#f5a623"/>
  <rect x="284" y="116" width="28" height="28" fill="#f5a623"/>
  <rect x="312" y="116" width="28" height="28" fill="#f5a623"/>
  <rect x="172" y="144" width="28" height="28" fill="#f5a623"/>
  <rect x="200" y="144" width="28" height="28" fill="#f5a623"/>
  <rect x="228" y="144" width="28" height="28" fill="#f5a623"/>
  <rect x="256" y="144" width="28" height="28" fill="#f5a623"/>
  <rect x="284" y="144" width="28" height="28" fill="#f5a623"/>
  <rect x="312" y="144" width="28" height="28" fill="#f5a623"/>
  <rect x="340" y="144" width="28" height="28" fill="#f5a623"/>
  <rect x="368" y="144" width="28" height="28" fill="#e07a00"/>
  <rect x="172" y="172" width="28" height="28" fill="#f5a623"/>
  <rect x="200" y="172" width="28" height="28" fill="#f5a623"/>
  <rect x="228" y="172" width="28" height="28" fill="#f5a623"/>
  <rect x="256" y="172" width="28" height="28" fill="#f5a623"/>
  <rect x="284" y="172" width="28" height="28" fill="#2b1a06"/>
  <rect x="312" y="172" width="28" height="28" fill="#f5a623"/>
  <rect x="340" y="172" width="28" height="28" fill="#f5a623"/>
  <rect x="368" y="172" width="28" height="28" fill="#e07a00"/>
  <rect x="172" y="200" width="28" height="28" fill="#f5a623"/>
  <rect x="200" y="200" width="28" height="28" fill="#f5a623"/>
  <rect x="228" y="200" width="28" height="28" fill="#f5a623"/>
  <rect x="256" y="200" width="28" height="28" fill="#f5a623"/>
  <rect x="284" y="200" width="28" height="28" fill="#f5a623"/>
  <rect x="312" y="200" width="28" height="28" fill="#f5a623"/>
  <rect x="340" y="200" width="28" height="28" fill="#f5a623"/>
  <rect x="116" y="228" width="28" height="28" fill="#f5a623"/>
  <rect x="144" y="228" width="28" height="28" fill="#f5a623"/>
  <rect x="172" y="228" width="28" height="28" fill="#f5a623"/>
  <rect x="200" y="228" width="28" height="28" fill="#f5a623"/>
  <rect x="228" y="228" width="28" height="28" fill="#f5a623"/>
  <rect x="256" y="228" width="28" height="28" fill="#f5a623"/>
  <rect x="284" y="228" width="28" height="28" fill="#f5a623"/>
  <rect x="312" y="228" width="28" height="28" fill="#f5a623"/>
  <rect x="340" y="228" width="28" height="28" fill="#f5a623"/>
  <rect x="88" y="256" width="28" height="28" fill="#f5a623"/>
  <rect x="116" y="256" width="28" height="28" fill="#f5a623"/>
  <rect x="144" y="256" width="28" height="28" fill="#f5a623"/>
  <rect x="172" y="256" width="28" height="28" fill="#f5a623"/>
  <rect x="200" y="256" width="28" height="28" fill="#f5a623"/>
  <rect x="228" y="256" width="28" height="28" fill="#f5a623"/>
  <rect x="256" y="256" width="28" height="28" fill="#f5a623"/>
  <rect x="284" y="256" width="28" height="28" fill="#f5a623"/>
  <rect x="312" y="256" width="28" height="28" fill="#f5a623"/>
  <rect x="340" y="256" width="28" height="28" fill="#f5a623"/>
  <rect x="368" y="256" width="28" height="28" fill="#f5a623"/>
  <rect x="88" y="284" width="28" height="28" fill="#f5a623"/>
  <rect x="116" y="284" width="28" height="28" fill="#ffd98a"/>
  <rect x="144" y="284" width="28" height="28" fill="#ffd98a"/>
  <rect x="172" y="284" width="28" height="28" fill="#f5a623"/>
  <rect x="200" y="284" width="28" height="28" fill="#f5a623"/>
  <rect x="228" y="284" width="28" height="28" fill="#f5a623"/>
  <rect x="256" y="284" width="28" height="28" fill="#f5a623"/>
  <rect x="284" y="284" width="28" height="28" fill="#f5a623"/>
  <rect x="312" y="284" width="28" height="28" fill="#f5a623"/>
  <rect x="340" y="284" width="28" height="28" fill="#f5a623"/>
  <rect x="368" y="284" width="28" height="28" fill="#f5a623"/>
  <rect x="116" y="312" width="28" height="28" fill="#ffd98a"/>
  <rect x="144" y="312" width="28" height="28" fill="#ffd98a"/>
  <rect x="172" y="312" width="28" height="28" fill="#f5a623"/>
  <rect x="200" y="312" width="28" height="28" fill="#f5a623"/>
  <rect x="228" y="312" width="28" height="28" fill="#f5a623"/>
  <rect x="256" y="312" width="28" height="28" fill="#f5a623"/>
  <rect x="284" y="312" width="28" height="28" fill="#f5a623"/>
  <rect x="312" y="312" width="28" height="28" fill="#f5a623"/>
  <rect x="340" y="312" width="28" height="28" fill="#f5a623"/>
  <rect x="144" y="340" width="28" height="28" fill="#f5a623"/>
  <rect x="172" y="340" width="28" height="28" fill="#f5a623"/>
  <rect x="200" y="340" width="28" height="28" fill="#f5a623"/>
  <rect x="228" y="340" width="28" height="28" fill="#f5a623"/>
  <rect x="256" y="340" width="28" height="28" fill="#f5a623"/>
  <rect x="284" y="340" width="28" height="28" fill="#f5a623"/>
  <rect x="312" y="340" width="28" height="28" fill="#f5a623"/>
  <rect x="172" y="368" width="28" height="28" fill="#e07a00"/>
  <rect x="256" y="368" width="28" height="28" fill="#e07a00"/>
  <rect x="144" y="396" width="28" height="28" fill="#e07a00"/>
  <rect x="172" y="396" width="28" height="28" fill="#e07a00"/>
  <rect x="256" y="396" width="28" height="28" fill="#e07a00"/>
  <rect x="284" y="396" width="28" height="28" fill="#e07a00"/>
</svg>
